<?xml version="1.0" ?><svg viewBox="0 0 64 64" xmlns="http://www.w3.org/2000/svg"><g data-name="10-wifi" id="_10-wifi"><circle cx="32" cy="56" r="5" style="fill:#7bace6"/><path d="M59.00263,23a3.99364,3.99364,0,0,1-3.1915-1.585C55.46248,20.96094,47.61751,11,31.99885,11,16.35578,11,8.51178,20.9917,8.1856,21.417A4.0003,4.0003,0,0,1,1.7977,16.6001C2.2147,16.04492,12.22576,3,31.99885,3S61.783,16.04492,62.2,16.6001A3.99969,3.99969,0,0,1,59.00263,23Z" style="fill:#7bace6"/><path d="M51.00184,35.99972a3.99175,3.99175,0,0,1-2.999-1.35056,22.58393,22.58393,0,0,0-31.992-.01563,4.00013,4.00013,0,0,1-6.02145-5.26748,30.546,30.546,0,0,1,44.02124,0,4.00022,4.00022,0,0,1-3.00878,6.63367Z" style="fill:#7bace6"/><path d="M42.99632,49a3.982,3.982,0,0,1-2.4818-.86523C40.44029,48.07715,36.44559,45,31.99769,45c-4.46743,0-8.47678,3.104-8.51683,3.13525a4.00047,4.00047,0,0,1-4.9841-6.25879C19.12087,41.37744,24.80136,37,31.99769,37s12.87682,4.37744,13.50093,4.87646A4.00036,4.00036,0,0,1,42.99632,49Z" style="fill:#7bace6"/></g></svg>